<?xml version="1.0" standalone="no"?><!DOCTYPE svg PUBLIC "-//W3C//DTD SVG 1.1//EN" "http://www.w3.org/Graphics/SVG/1.1/DTD/svg11.dtd"><svg t="1547715609857" class="icon" style="" viewBox="0 0 1024 1024" version="1.1" xmlns="http://www.w3.org/2000/svg" p-id="35194" xmlns:xlink="http://www.w3.org/1999/xlink" width="16" height="16"><defs><style type="text/css"></style></defs><path d="M494.933 370.347c-107.52 0-196.266 88.746-196.266 196.266S387.413 762.88 494.933 762.88 691.2 674.133 691.2 566.613c0-109.226-88.747-196.266-196.267-196.266z m0 358.4c-88.746 0-162.133-73.387-162.133-162.134S406.187 404.48 494.933 404.48s162.134 73.387 162.134 162.133-73.387 162.134-162.134 162.134z" fill="#bfbfbf" p-id="35195"></path><path d="M873.813 184.32H563.2c-29.013 0-52.907 17.067-68.267 39.253-15.36-22.186-39.253-39.253-68.266-39.253H116.053c-29.013 0-51.2 22.187-51.2 51.2v622.933c0 29.014 22.187 51.2 51.2 51.2H424.96c8.533 23.894 32.427 39.254 58.027 39.254h22.186c25.6 0 49.494-17.067 58.027-39.254h308.907c29.013 0 51.2-22.186 51.2-51.2V235.52c1.706-29.013-22.187-51.2-49.494-51.2z m17.067 674.133c0 10.24-6.827 17.067-17.067 17.067h-322.56c-8.533 0-15.36 6.827-17.066 15.36-1.707 13.653-13.654 25.6-27.307 25.6h-22.187c-13.653 0-25.6-10.24-27.306-25.6-1.707-8.533-8.534-15.36-17.067-15.36H116.053c-10.24 0-17.066-6.827-17.066-17.067V235.52c0-10.24 6.826-17.067 17.066-17.067h310.614c29.013 0 51.2 32.427 51.2 59.734 0 10.24 6.826 17.066 17.066 17.066S512 288.427 512 278.187c0-27.307 22.187-59.734 51.2-59.734h310.613c10.24 0 17.067 6.827 17.067 17.067v622.933z" fill="#bfbfbf" p-id="35196"></path><path d="M588.8 549.547H512v-76.8c0-10.24-6.827-17.067-17.067-17.067s-17.066 6.827-17.066 17.067v76.8h-76.8c-10.24 0-17.067 6.826-17.067 17.066s6.827 17.067 17.067 17.067h76.8v76.8c0 10.24 6.826 17.067 17.066 17.067S512 670.72 512 660.48v-76.8h76.8c10.24 0 17.067-6.827 17.067-17.067s-6.827-17.066-17.067-17.066z" fill="#bfbfbf" p-id="35197"></path></svg>