<?xml version="1.0" standalone="no"?><!DOCTYPE svg PUBLIC "-//W3C//DTD SVG 1.1//EN" "http://www.w3.org/Graphics/SVG/1.1/DTD/svg11.dtd"><svg t="1547714731359" class="icon" style="" viewBox="0 0 1072 1024" version="1.1" xmlns="http://www.w3.org/2000/svg" p-id="31978" xmlns:xlink="http://www.w3.org/1999/xlink" width="16.75" height="16"><defs><style type="text/css"></style></defs><path d="M1024 950.857143H609.52381l-73.142858 73.142857-73.898666-73.142857H48.761905a48.761905 48.761905 0 0 1-48.761905-48.761905V48.761905a48.761905 48.761905 0 0 1 48.761905-48.761905h414.47619l73.142857 73.142857 73.142858-73.142857h414.47619a48.761905 48.761905 0 0 1 48.761905 48.761905v853.333333a48.761905 48.761905 0 0 1-48.761905 48.761905z m0-857.965714A44.227048 44.227048 0 0 0 979.675429 48.761905H602.86781L536.380952 114.93181 469.894095 48.761905H93.086476A44.227048 44.227048 0 0 0 48.761905 92.891429v772.047238a44.227048 44.227048 0 0 0 44.324571 44.129523h376.100572L536.380952 975.238095l66.486858-66.169905h376.807619A44.227048 44.227048 0 0 0 1024 864.938667V92.891429zM365.714286 633.904762H170.666667a24.380952 24.380952 0 0 1 0-48.761905h195.047619a24.380952 24.380952 0 0 1 0 48.761905z m0-146.285714H170.666667a24.380952 24.380952 0 0 1 0-48.761905h195.047619a24.380952 24.380952 0 0 1 0 48.761905z m0-146.285715H170.666667a24.380952 24.380952 0 0 1 0-48.761904h195.047619a24.380952 24.380952 0 0 1 0 48.761904z" fill="#bfbfbf" p-id="31979"></path></svg>