<?xml version="1.0" standalone="no"?><!DOCTYPE svg PUBLIC "-//W3C//DTD SVG 1.1//EN" "http://www.w3.org/Graphics/SVG/1.1/DTD/svg11.dtd"><svg t="1547714492680" class="icon" style="" viewBox="0 0 1024 1024" version="1.1" xmlns="http://www.w3.org/2000/svg" p-id="30921" xmlns:xlink="http://www.w3.org/1999/xlink" width="16" height="16"><defs><style type="text/css"></style></defs><path d="M507.252053 9.57952C230.60992 9.57952 6.3488 233.844053 6.3488 510.47936c0 276.64384 224.26112 500.906667 500.903253 500.906667s500.906667-224.262827 500.906667-500.906667c-0.001707-276.635307-224.264533-500.89984-500.906667-500.89984z m0 967.927467c-257.931947 0-467.027627-209.09056-467.027626-467.02592 0-257.92512 209.097387-467.022507 467.027626-467.022507 257.931947 0 467.029333 209.097387 467.029334 467.022507-0.001707 257.93536-209.097387 467.02592-467.029334 467.02592z" fill="#bfbfbf" p-id="30922"></path><path d="M707.309227 287.88736H342.990507c-9.125547 0-15.8208 8.127147-14.636374 17.179307 0.01536 0.09728 0.03072 0.19968 0.03584 0.298666 0.889173 6.884693 6.473387 12.18048 13.410987 12.18048h365.50656c16.37888 0 29.656747 13.277867 29.656747 29.656747v400.35328c0 16.377173-13.277867 29.653333-29.656747 29.653333h-400.349867c-16.380587 0-29.658453-13.27616-29.658453-29.653333V368.75264c15.78496 14.189227 36.549973 22.934187 59.311787 22.934187h326.217386a14.830933 14.830933 0 0 0 14.82752-14.82752 14.825813 14.825813 0 0 0-14.82752-14.82752H338.710187c-31.557973 0-59.163307-23.76192-61.26592-55.251627-2.310827-34.5344 25.127253-63.373653 59.170133-63.373653h326.217387a14.829227 14.829227 0 0 0 14.82752-14.829227c0-8.192-6.64064-14.82752-14.82752-14.82752H336.6144c-48.93184 0-88.968533 40.034987-88.968533 88.966827V747.554133c0 32.61952 26.69056 59.31008 59.313493 59.31008h400.349867c32.622933 0 59.313493-26.69056 59.313493-59.31008V347.20256c0-32.61952-26.683733-59.3152-59.313493-59.3152z" fill="#bfbfbf" p-id="30923"></path><path d="M425.59488 732.726613v-148.276906h-88.966827v148.276906h88.966827z m-59.313493-118.62016h29.656746v88.966827h-29.656746v-88.966827zM551.620267 732.726613V510.3104h-88.968534v222.416213h88.968534z m-59.311787-192.76288h29.65504v163.106134h-29.65504v-163.106134zM588.680533 732.726613h88.966827V436.165973H588.680533v296.56064z m29.653334-266.90048h29.66016v237.247147h-29.66016V465.826133z" fill="#bfbfbf" p-id="30924"></path></svg>