<?xml version="1.0" standalone="no"?><!DOCTYPE svg PUBLIC "-//W3C//DTD SVG 1.1//EN" "http://www.w3.org/Graphics/SVG/1.1/DTD/svg11.dtd"><svg t="1547713874638" class="icon" style="" viewBox="0 0 1024 1024" version="1.1" xmlns="http://www.w3.org/2000/svg" p-id="27874" xmlns:xlink="http://www.w3.org/1999/xlink" width="16" height="16"><defs><style type="text/css"></style></defs><path d="M533.72 1024H90.708a18.286 18.286 0 0 1-18.229-18.228V18.228A18.286 18.286 0 0 1 90.708 0h749.511a18.286 18.286 0 0 1 18.229 18.228v555.194a18.286 18.286 0 0 1-18.229 18.229 18.286 18.286 0 0 1-18.228-18.229V36.468H108.936v951.087H533.73a18.286 18.286 0 0 1 18.229 18.228A18.286 18.286 0 0 1 533.72 1024z" p-id="27875" fill="#bfbfbf"></path><path d="M678.644 238.466H242.077a18.286 18.286 0 0 1-18.24-18.183 18.286 18.286 0 0 1 18.229-18.228h436.566a18.286 18.286 0 0 1 18.229 18.228 18.286 18.286 0 0 1-18.217 18.183z m-216.81 219.003H242.067a18.286 18.286 0 0 1-18.228-18.228 18.286 18.286 0 0 1 18.228-18.229h219.769a18.286 18.286 0 0 1 18.228 18.229 18.286 18.286 0 0 1-18.228 18.228zM649.89 926.195c-38.011 0-77.394-8-117.039-23.737-31.314-12.434-62.856-29.713-93.804-51.427-52.457-36.743-84.857-73.143-86.205-74.708a18.286 18.286 0 0 1 0-24.126c1.348-1.531 33.76-37.965 86.205-74.707 30.936-21.714 62.49-38.96 93.804-51.428 39.645-15.749 79.028-23.737 117.039-23.737s77.393 8 117.039 23.737c31.314 12.434 62.856 29.714 93.804 51.428 52.457 36.742 84.856 73.142 86.205 74.707a18.217 18.217 0 0 1 0 24.126c-1.349 1.531-33.76 37.965-86.205 74.708-30.937 21.714-62.49 38.96-93.804 51.427-39.634 15.749-79.005 23.737-117.04 23.737zM391.8 764.277a533.114 533.114 0 0 0 68.902 57.417c44.48 31.04 113.405 68.033 189.198 68.033 120.456 0 224.25-91.919 258.112-125.473a533.057 533.057 0 0 0-68.902-57.416c-44.48-31.04-113.405-68.034-189.198-68.034-120.456 0.012-224.25 91.93-258.112 125.473z" p-id="27876" fill="#bfbfbf"></path><path d="M579.068 764.277a73.645 73.645 0 1 0 147.29 0 73.645 73.645 0 1 0-147.29 0z" p-id="27877" fill="#bfbfbf"></path><path d="M652.713 856.15a91.976 91.976 0 0 1-91.874-91.873 91.976 91.976 0 0 1 91.874-91.873 91.976 91.976 0 0 1 91.873 91.873 91.976 91.976 0 0 1-91.873 91.873z m0-147.29a55.485 55.485 0 0 0-55.394 55.417 55.485 55.485 0 0 0 55.417 55.417 55.485 55.485 0 0 0 55.439-55.417 55.485 55.485 0 0 0-55.462-55.416z" p-id="27878" fill="#bfbfbf"></path></svg>