<?xml version="1.0" standalone="no"?><!DOCTYPE svg PUBLIC "-//W3C//DTD SVG 1.1//EN" "http://www.w3.org/Graphics/SVG/1.1/DTD/svg11.dtd"><svg t="1547713808268" class="icon" style="" viewBox="0 0 1024 1024" version="1.1" xmlns="http://www.w3.org/2000/svg" p-id="27675" xmlns:xlink="http://www.w3.org/1999/xlink" width="16" height="16"><defs><style type="text/css"></style></defs><path d="M525 958.1H131.9c-33.8 0-61.2-27.5-61.2-61.2v-771c0-33.8 27.5-61.2 61.2-61.2h646.5c33.8 0 61.2 27.5 61.2 61.2V513c0 11-9 20-20 20s-20-9-20-20V125.9c0-11.7-9.5-21.2-21.2-21.2H131.9c-11.7 0-21.2 9.5-21.2 21.2v771c0 11.7 9.5 21.2 21.2 21.2H525c11 0 20 9 20 20s-9 20-20 20z" p-id="27676" fill="#bfbfbf"></path><path d="M688.6 331.7H227.8c-12.8 0-23.1-10.3-23.1-23.1v-0.5c0-12.8 10.3-23.1 23.1-23.1h460.8c12.8 0 23.1 10.3 23.1 23.1v0.5c0 12.7-10.4 23.1-23.1 23.1zM501.8 611h-283c-7.8 0-14.2-9.3-14.2-20.7v-0.4c0-11.4 6.4-20.7 14.2-20.7h283c7.8 0 14.2 9.3 14.2 20.7v0.4c0 11.4-6.4 20.7-14.2 20.7zM608.2 471.9H223.9c-10.6 0-19.3-9.3-19.3-20.7v-0.4c0-11.4 8.6-20.7 19.3-20.7h384.3c10.6 0 19.3 9.3 19.3 20.7v0.4c0 11.4-8.6 20.7-19.3 20.7z" p-id="27677" fill="#bfbfbf"></path><path d="M926.5 948.1c-13.3 13.3-34.9 13.3-48.1 0l-68.8-68.9c-0.3-0.2-0.4-0.5-0.7-0.8-24.8 13.8-53.3 21.7-83.6 21.7-95.4 0-172.7-77.4-172.7-172.9s77.3-172.9 172.7-172.9c95.4 0 172.7 77.4 172.7 172.9 0 40.4-14 77.5-37.2 107l65.7 65.8c13.3 13.2 13.3 34.8 0 48.1zM725.4 605.9c-66.9 0-121.1 54.3-121.1 121.3s54.2 121.3 121.1 121.3c66.9 0 121.1-54.3 121.1-121.3s-54.2-121.3-121.1-121.3z m0 0" p-id="27678" fill="#bfbfbf"></path></svg>