<?xml version="1.0" standalone="no"?><!DOCTYPE svg PUBLIC "-//W3C//DTD SVG 1.1//EN" "http://www.w3.org/Graphics/SVG/1.1/DTD/svg11.dtd"><svg class="icon" width="16px" height="15.95px" viewBox="0 0 1027 1024" version="1.1" xmlns="http://www.w3.org/2000/svg"><path fill="#bfbfbf" d="M212.288 1024h-111.71A100.65 100.65 0 0 1 0 923.459V100.54A100.65 100.65 0 0 1 100.541 0h111.711a100.65 100.65 0 0 1 100.56 100.541V923.46A100.65 100.65 0 0 1 212.288 1024zM100.578 59.581a41.014 41.014 0 0 0-41.033 40.96V923.46a41.014 41.014 0 0 0 40.96 40.96h111.711a41.014 41.014 0 0 0 40.96-40.96V100.54a41.014 41.014 0 0 0-40.96-40.96z"  /><path fill="#bfbfbf" d="M100.578 130.332h122.88v70.75h-122.88v-70.75zM100.578 234.59h122.88v70.751h-122.88v-70.75zM100.578 338.85h122.88v70.75h-122.88v-70.75zM569.759 1024h-111.71a100.65 100.65 0 0 1-100.542-100.541V100.54A100.65 100.65 0 0 1 458.048 0H569.76a100.65 100.65 0 0 1 100.523 100.541V923.46A100.65 100.65 0 0 1 569.76 1024zM458.049 59.581a41.014 41.014 0 0 0-40.96 40.96V923.46a41.014 41.014 0 0 0 40.96 40.96h111.71a41.014 41.014 0 0 0 40.96-40.96V100.54a41.014 41.014 0 0 0-40.96-40.96z"  /><path fill="#bfbfbf" d="M458.048 130.332h122.88v70.75h-122.88v-70.75zM458.048 234.59h122.88v70.751h-122.88v-70.75zM458.048 338.85h122.88v70.75h-122.88v-70.75z"  /><path fill="#bfbfbf" d="M569.759 1024h-111.71a100.65 100.65 0 0 1-100.542-100.541V100.54A100.65 100.65 0 0 1 458.048 0H569.76a100.65 100.65 0 0 1 100.523 100.541V923.46A100.65 100.65 0 0 1 569.76 1024zM458.049 59.581a41.014 41.014 0 0 0-40.96 40.96V923.46a41.014 41.014 0 0 0 40.96 40.96h111.71a41.014 41.014 0 0 0 40.96-40.96V100.54a41.014 41.014 0 0 0-40.96-40.96z"  /><path fill="#bfbfbf" d="M458.048 130.332h122.88v70.75h-122.88v-70.75zM458.048 234.59h122.88v70.751h-122.88v-70.75zM458.048 338.85h122.88v70.75h-122.88v-70.75zM927.23 1024H815.59A100.65 100.65 0 0 1 715.05 923.459V100.54A100.65 100.65 0 0 1 815.59 0h111.71a100.65 100.65 0 0 1 100.452 100.541V923.46A100.65 100.65 0 0 1 927.23 1024zM815.59 59.581a41.014 41.014 0 0 0-40.96 40.96V923.46a41.014 41.014 0 0 0 40.96 40.96h111.71a41.014 41.014 0 0 0 40.96-40.96V100.54a41.014 41.014 0 0 0-40.96-40.96z"  /><path fill="#bfbfbf" d="M815.519 130.332h122.88v70.75h-122.88v-70.75zM815.519 234.59h122.88v70.751h-122.88v-70.75zM815.519 338.85h122.88v70.75h-122.88v-70.75z"  /></svg>