<?xml version="1.0" standalone="no"?><!DOCTYPE svg PUBLIC "-//W3C//DTD SVG 1.1//EN" "http://www.w3.org/Graphics/SVG/1.1/DTD/svg11.dtd"><svg class="icon" width="16px" height="16.00px" viewBox="0 0 1024 1024" version="1.1" xmlns="http://www.w3.org/2000/svg"><path fill="#bfbfbf" d="M850.3 92H173.7c-0.9 0-1.7 0.8-1.7 1.7v836.6c0 0.9 0.8 1.7 1.7 1.7h676.6c0.9 0 1.7-0.8 1.7-1.7V93.7c0-0.9-0.8-1.7-1.7-1.7zM804 141.7V311c0 0.7-0.5 1.4-1.2 1.6-81.6 26.7-186.6 41-273.1 42.7-0.9 0-1.7-0.7-1.7-1.7v-77.9c0-0.9 0.8-1.7 1.7-1.7h44.6c0.9 0 1.7-0.8 1.7-1.7v-28.6c0-0.9-0.8-1.7-1.7-1.7H449.7c-0.9 0-1.7 0.8-1.7 1.7v28.6c0 0.9 0.8 1.7 1.7 1.7h44.6c0.9 0 1.7 0.8 1.7 1.7v77.9c0 0.9-0.8 1.7-1.7 1.7-86.6-1.7-191.5-16-273.1-42.7-0.7-0.2-1.2-0.9-1.2-1.6V141.7c0-0.9 0.8-1.7 1.7-1.7h580.6c0.9 0 1.7 0.8 1.7 1.7zM493.2 498.8c27.6-20.9 58.9 10.4 38 38-0.1 0.1-0.2 0.3-0.4 0.4-27.6 20.9-58.9-10.4-38-38l0.4-0.4zM220 882.3V364.9c0-1.1 1.1-1.9 2.2-1.6 81.5 25 186.1 38.4 272.2 40 0.9 0 1.6 0.8 1.6 1.7v56c0 0.7-0.5 1.4-1.2 1.6-35.9 11.2-56.9 56.2-25.4 97.6l0.3 0.3c47.6 36.4 100.2 3 100.2-42.5 0-26-17.2-48-40.8-55.4-0.7-0.2-1.2-0.9-1.2-1.6v-56c0-0.9 0.7-1.7 1.6-1.7 86.1-1.6 190.6-15.1 272.2-40.1 1.1-0.3 2.2 0.5 2.2 1.6v517.5c0 0.9-0.8 1.7-1.7 1.7H221.7c-0.9 0-1.7-0.8-1.7-1.7z" /></svg>