<?xml version="1.0" standalone="no"?><!DOCTYPE svg PUBLIC "-//W3C//DTD SVG 1.1//EN" "http://www.w3.org/Graphics/SVG/1.1/DTD/svg11.dtd"><svg class="icon" width="16px" height="16.00px" viewBox="0 0 1024 1024" version="1.1" xmlns="http://www.w3.org/2000/svg"><path fill="#bfbfbf" d="M824.625 153.116H657.216c-27.204-53.148-82.386-89.6-146.192-89.6s-118.987 36.452-146.19 89.6h-167.41c-32.989 0-59.733 26.744-59.733 59.733v686.933c0 32.989 26.744 59.733 59.733 59.733h627.2c32.989 0 59.733-26.744 59.733-59.733V212.849c0.001-32.989-26.743-59.733-59.732-59.733z m-492.8 44.8c0-8.248 6.686-14.933 14.933-14.933h37.678c18.47-52.165 68.095-89.6 126.589-89.6s108.119 37.434 126.588 89.6h37.679c8.248 0 14.933 6.686 14.933 14.933v59.733c0 8.248-6.686 14.933-14.933 14.933H346.758c-8.248 0-14.933-6.686-14.933-14.933v-59.733z m0 104.533h358.4c16.496 0 29.867-13.371 29.867-29.867v-29.867h59.733c8.248 0 14.933 6.686 14.933 14.933v597.333c0 8.248-6.686 14.933-14.933 14.933h-537.6c-8.246 0-14.933-6.686-14.933-14.933V257.649c0-8.248 6.687-14.933 14.933-14.933h59.733v29.867c0 16.495 13.371 29.866 29.867 29.866z m522.666 597.333c0 16.496-13.371 29.867-29.867 29.867h-627.2c-16.496 0-29.867-13.371-29.867-29.867V212.849c0-16.496 13.371-29.867 29.867-29.867h104.533v29.867H227.29c-16.496 0-29.867 13.371-29.867 29.867v627.2c0 16.496 13.371 29.867 29.867 29.867h567.467c16.494 0 29.867-13.371 29.867-29.867v-627.2c0-16.496-13.373-29.867-29.867-29.867H720.09v-29.867h104.533c16.496 0 29.867 13.371 29.867 29.867v686.933z m-388.266-716.8h89.6c8.248 0 14.933-6.686 14.933-14.933s-6.686-14.933-14.933-14.933h-89.6c-8.248 0-14.933 6.686-14.933 14.933s6.685 14.933 14.933 14.933zM361.691 556.316h134.4c8.248 0 14.933-6.686 14.933-14.933s-6.686-14.933-14.933-14.933h-134.4c-8.248 0-14.933 6.686-14.933 14.933s6.685 14.933 14.933 14.933z m0 89.6h298.667c8.248 0 14.933-6.686 14.933-14.933 0-8.248-6.686-14.933-14.933-14.933H361.691c-8.248 0-14.933 6.686-14.933 14.933s6.685 14.933 14.933 14.933z m0 89.6h298.667c8.248 0 14.933-6.686 14.933-14.933 0-8.248-6.686-14.933-14.933-14.933H361.691c-8.248 0-14.933 6.686-14.933 14.933s6.685 14.933 14.933 14.933zM316.891 869.916h59.733v29.867h-59.733v-29.867zM391.558 869.916h89.6v29.867h-89.6v-29.867zM301.958 869.916h14.933c8.248 0 14.933 6.686 14.933 14.933s-6.686 14.933-14.933 14.933h-14.933c-8.248 0-14.933-6.686-14.933-14.933s6.685-14.933 14.933-14.933zM376.625 869.916h14.933c8.248 0 14.933 6.686 14.933 14.933s-6.686 14.933-14.933 14.933h-14.933c-8.248 0-14.933-6.686-14.933-14.933s6.685-14.933 14.933-14.933zM481.158 869.916h29.867c8.248 0 14.933 6.686 14.933 14.933s-6.686 14.933-14.933 14.933h-29.867c-8.248 0-14.933-6.686-14.933-14.933s6.685-14.933 14.933-14.933z" /></svg>