<?xml version="1.0" standalone="no"?><!DOCTYPE svg PUBLIC "-//W3C//DTD SVG 1.1//EN" "http://www.w3.org/Graphics/SVG/1.1/DTD/svg11.dtd"><svg t="1547714843681" class="icon" style="" viewBox="0 0 1024 1024" version="1.1" xmlns="http://www.w3.org/2000/svg" p-id="34875" xmlns:xlink="http://www.w3.org/1999/xlink" width="16" height="16"><defs><style type="text/css"></style></defs><path d="M722.823529 349.364706c0-24.094118-18.070588-36.141176-36.141176-36.141177H307.2c-18.070588 0-36.141176 18.070588-36.141176 36.141177 0 24.094118 18.070588 36.141176 36.141176 36.141176h385.505882c18.070588 0 30.117647-12.047059 30.117647-36.141176z" p-id="34876" fill="#bfbfbf"></path><path d="M385.505882 933.647059H108.423529c-18.070588 0-36.141176-18.070588-36.141176-36.141177V132.517647c0-24.094118 18.070588-36.141176 36.141176-36.141176h662.588236c18.070588 0 36.141176 18.070588 36.141176 36.141176v252.988235c0 24.094118 18.070588 36.141176 36.141177 36.141177s36.141176-18.070588 36.141176-36.141177V132.517647c0-66.258824-48.188235-114.447059-114.447059-114.447059h-662.588235C48.188235 18.070588 0 66.258824 0 132.517647v764.988235c0 66.258824 48.188235 114.447059 108.423529 114.447059h277.082353c18.070588 0 36.141176-18.070588 36.141177-36.141176 0-24.094118-12.047059-42.164706-36.141177-42.164706z" p-id="34877" fill="#e6e6e6"></path><path d="M307.2 554.164706c-18.070588 0-36.141176 18.070588-36.141176 36.141176 0 24.094118 18.070588 36.141176 36.141176 36.141177h265.035294c18.070588 0 36.141176-18.070588 36.141177-36.141177 0-24.094118-18.070588-36.141176-36.141177-36.141176H307.2z" p-id="34878" fill="#e6e6e6"></path><path d="M156.611765 596.329412m-36.141177 0a36.141176 36.141176 0 1 0 72.282353 0 36.141176 36.141176 0 1 0-72.282353 0Z" p-id="34879" fill="#e6e6e6"></path><path d="M156.611765 355.388235m-36.141177 0a36.141176 36.141176 0 1 0 72.282353 0 36.141176 36.141176 0 1 0-72.282353 0Z" p-id="34880" fill="#e6e6e6"></path><path d="M975.811765 939.670588c-6.023529-42.164706-30.117647-198.776471-30.117647-222.870588-6.023529-42.164706-42.164706-66.258824-84.329412-66.258824h-36.141177V481.882353c0-42.164706-36.141176-78.305882-78.305882-78.305882-18.070588 0-42.164706 6.023529-54.211765 24.094117-12.047059 12.047059-18.070588 30.117647-18.070588 54.211765v162.635294h-36.141176c-48.188235 0-90.352941 30.117647-90.352942 84.329412 0 12.047059-12.047059 114.447059-18.070588 210.823529 0 6.023529 0 18.070588 6.02353 24.094118 6.023529 6.023529 12.047059 12.047059 24.094117 12.047059h385.505883c12.047059 0 18.070588-6.023529 24.094117-12.047059 12.047059-6.023529 12.047059-18.070588 6.02353-24.094118z m-415.62353 6.02353s-6.023529 0 0 0z m186.729412-475.858824h6.023529c6.023529 0 12.047059 6.023529 12.047059 12.047059v168.658823h-24.094117V481.882353c0-6.023529 0-6.023529 6.023529-12.047059z m132.517647 445.741177l6.02353-72.282353c0-6.023529 0-18.070588-6.02353-24.094118-6.023529-6.023529-12.047059-12.047059-24.094118-12.047059-18.070588 0-30.117647 12.047059-36.141176 30.117647l-6.023529 78.305883H783.058824V843.294118c0-18.070588-12.047059-30.117647-30.117648-36.141177-18.070588 0-30.117647 12.047059-36.141176 30.117647l-6.023529 78.305883h-30.117647l6.023529-72.282353c0-18.070588-12.047059-30.117647-30.117647-30.117647s-30.117647 12.047059-36.141177 30.117647l-6.023529 78.305882h-18.070588c12.047059-90.352941 18.070588-162.635294 18.070588-180.705882 0-18.070588 12.047059-24.094118 30.117647-24.094118h222.870588c12.047059 0 18.070588 6.023529 18.070589 12.047059 0 12.047059 6.023529 48.188235 18.070588 114.447059 6.023529 48.188235 6.023529 54.211765 12.047059 78.305882h-36.141177z" p-id="34881" fill="#e6e6e6"></path></svg>
