<?xml version="1.0" standalone="no"?><!DOCTYPE svg PUBLIC "-//W3C//DTD SVG 1.1//EN" "http://www.w3.org/Graphics/SVG/1.1/DTD/svg11.dtd"><svg t="1547714638914" class="icon" style="" viewBox="0 0 1024 1024" version="1.1" xmlns="http://www.w3.org/2000/svg" p-id="31502" xmlns:xlink="http://www.w3.org/1999/xlink" width="16" height="16"><defs><style type="text/css"></style></defs><path d="M190.9 1013.69h-88.61C46 1013.69 0 968.08 0 912.16V101.53C0 45.61 46 0 102.29 0h88.07c56.34 0 102.29 45.61 102.29 101.53V912.7c0 55.92-45.4 101-101.75 101zM102.29 54.3C76.58 54.3 54.7 76 54.7 101.53v810.63c0 25.51 21.88 47.23 47.59 47.23h88.61c25.72 0 47-21.17 47-46.69V101.53C238 76 216.07 54.3 190.36 54.3z m0 0M481.92 505a27 27 0 0 1-27.35-27.15v-316a27.35 27.35 0 0 1 54.7 0v316A27 27 0 0 1 481.92 505zM817.23 505a27 27 0 0 1-27.35-27.15v-316a27.36 27.36 0 0 1 54.71 0v316A27 27 0 0 1 817.23 505z" p-id="31503" fill="#bfbfbf"></path><path d="M1009.57 939.88a49.28 49.28 0 0 1-69.69 69.69l-144.4-144.41a196 196 0 0 1-100 27.45c-108.85 0-197.09-88.25-197.09-197.1s88.24-197.09 197.09-197.09S892.6 586.66 892.6 695.51a195.85 195.85 0 0 1-27.44 100l144.41 144.4zM695.51 547.69a147.82 147.82 0 1 0 147.82 147.82 147.82 147.82 0 0 0-147.82-147.82z" p-id="31504" fill="#e6e6e6"></path><path d="M725.34 449V101.53c0-25.51 21.88-47.23 47.59-47.23H861c25.72 0 47.59 21.72 47.59 47.23v432.8h54.7v-432.8C963.28 45.61 917.33 0 861 0h-88.07c-56.35 0-102.29 45.61-102.29 101.53V449zM482 959.39h-44.39c-25.71 0-47.59-21.72-47.59-47.23V101.53C390 76 411.9 54.3 437.61 54.3h88.07c25.71 0 47.58 21.72 47.58 47.23V449H628V101.53C628 45.61 582 0 525.68 0h-88.07c-56.35 0-102.29 45.61-102.29 101.53v810.63c0 55.92 45.94 101.52 102.29 101.52H482zM146.33 505A27 27 0 0 1 119 477.8v-316a27.36 27.36 0 0 1 54.71 0v316a27 27 0 0 1-27.38 27.2zM174.5 759.59h-56.34a27.15 27.15 0 1 1 0-54.3h56.34a27.15 27.15 0 1 1 0 54.3zM174.5 870.35h-56.34a27.15 27.15 0 1 1 0-54.3h56.34a27.15 27.15 0 1 1 0 54.3z" p-id="31505" fill="#e6e6e6"></path></svg>
