<?xml version="1.0" standalone="no"?><!DOCTYPE svg PUBLIC "-//W3C//DTD SVG 1.1//EN" "http://www.w3.org/Graphics/SVG/1.1/DTD/svg11.dtd"><svg class="icon" width="16px" height="16.00px" viewBox="0 0 1024 1024" version="1.1" xmlns="http://www.w3.org/2000/svg"><path fill="#bfbfbf" d="M301.8 295.9h-90v-50h90v50z m195.8-50h-90v50h90v-50zM301.8 369.1h-90v50h90v-50z m195.8 0h-90v50h90v-50zM301.8 492.4h-90v50h90v-50z m195.8 0h-90v50h90v-50zM301.8 615.6h-90v50h90v-50z m195.8 0h-90v50h90v-50z m456.7-335.1V942H69.7V82h570v198.5h314.6zM589.7 132h-470v760h470V132z m314.6 198.5H639.7V892h264.6V330.5z m-75.2 102.8h-50v50h50v-50z m0 127.6h-50v50h50v-50z m0 177.6v-50h-50v50h50z"  /></svg>