<?xml version="1.0" standalone="no"?><!DOCTYPE svg PUBLIC "-//W3C//DTD SVG 1.1//EN" "http://www.w3.org/Graphics/SVG/1.1/DTD/svg11.dtd"><svg t="1547712962929" class="icon" style="" viewBox="0 0 1024 1024" version="1.1" xmlns="http://www.w3.org/2000/svg" p-id="24372" xmlns:xlink="http://www.w3.org/1999/xlink" width="48" height="48"><defs><style type="text/css"></style></defs><path d="M274.3 125.4h295.8c13.4 0 24.5-11.2 24.5-24.5s-11.2-24.5-24.5-24.5H274.3c-13.4 0-24.5 11.2-24.5 24.5s11.1 24.5 24.5 24.5zM443.5 906.9H76.7c-1.2-0.3-2.5-0.6-3.7-0.9-0.1 0-0.3-0.1-0.4-0.2-1-0.5-2.1-1.1-3.1-1.7-0.1-0.1-0.3-0.2-0.5-0.4-1.2-1.1-2.3-2.2-3.4-3.3-0.8-1.2-1.5-2.4-2.2-3.7-0.1-0.1-0.2-0.4-0.3-0.6-0.4-1.2-0.8-2.4-1.1-3.5-0.1-0.4-0.2-1-0.3-1.5-0.1-1-0.1-2-0.2-3V145.2c0-1.2 0.2-3 0.3-4.3 0.5-1.6 1.1-3.5 1.3-4.5 0.8-1.6 1.7-3.2 2.7-4.7 0.2-0.3 0.5-0.6 0.6-0.8 0.7-0.7 1.5-1.4 2.2-2.1 0.3-0.2 0.6-0.4 0.8-0.6 0.5-0.3 1.6-0.9 2.5-1.4 1.6-0.6 3.3-1 5-1.4 0.6-0.1 1.2-0.1 1.7-0.1h74.5c13.4 0 24.5-11.2 24.5-24.5 0-13.4-11.2-24.5-24.5-24.5-25.4 0-50.9-0.5-76.3 0-36 0.7-64.4 32.5-64.4 67.9v742.2c0 18.1 6.2 33.5 17.3 47.5C41.9 949 61.9 956 80.7 956h362.6c13.4 0 24.5-11.2 24.5-24.5 0.2-13.5-10.9-24.6-24.3-24.6zM67.9 129.5c-1 0.9-0.8 0.6 0 0z m-5.3 765.4c-0.4-1.1-0.6-1.6 0 0z m4.7 7.5c-0.3-0.3-0.5-0.4 0 0z m4.3 3c-1.3-0.6-2.2-1 0 0zM691.5 125.4h81c1.2 0.3 2.5 0.6 3.7 0.9 0.1 0 0.3 0.1 0.4 0.2 1 0.5 2.1 1.1 3.1 1.7 0.1 0.1 0.3 0.2 0.5 0.4 1.2 1.1 2.3 2.2 3.4 3.3 0.8 1.2 1.5 2.4 2.2 3.7 0.1 0.1 0.2 0.4 0.3 0.6 0.4 1.2 0.8 2.4 1.1 3.5 0.1 0.4 0.2 1 0.3 1.5 0.1 1 0.1 2 0.2 3v290.2c0 13.4 11.2 24.5 24.5 24.5s24.5-11.2 24.5-24.5V178.5c0-23.7 2.7-49.1-10-70.4-11.6-19.4-33.4-31.9-56-31.9h-79.1c-13.4 0-24.5 11.2-24.5 24.5s11.1 24.7 24.4 24.7z m95.1 11.9c0.5 1.1 0.6 1.6 0 0z m-4.7-7.5c0.4 0.3 0.5 0.4 0 0z m-4.3-2.9c1.4 0.5 2.2 1 0 0zM631.6 193.1c13.4 0 24.5-11.2 24.5-24.5V26.8c0-13.4-11.2-24.5-24.5-24.5s-24.5 11.2-24.5 24.5v141.7c0 13.4 11.1 24.6 24.5 24.6z" fill="#bfbfbf" p-id="24373"></path><path d="M215.5 193.1c13.4 0 24.5-11.2 24.5-24.5V26.8c0-13.4-11.2-24.5-24.5-24.5-13.4 0-24.5 11.2-24.5 24.5v141.7c0 13.4 11.1 24.6 24.5 24.6z" fill="#bfbfbf" p-id="24374"></path><path d="M163.2 358.2a25.1 25.2 0 1 0 50.2 0 25.1 25.2 0 1 0-50.2 0Z" fill="#bfbfbf" p-id="24375"></path><path d="M163.2 514.6a25.1 25.2 0 1 0 50.2 0 25.1 25.2 0 1 0-50.2 0Z" fill="#bfbfbf" p-id="24376"></path><path d="M163.2 669.1a25.1 25.2 0 1 0 50.2 0 25.1 25.2 0 1 0-50.2 0Z" fill="#bfbfbf" p-id="24377"></path><path d="M1015.8 757.5c-0.2-54.5-16.8-108.9-48.5-153.5-32-45.1-76.5-78.8-128.4-97.9-103.4-38.1-225-3.2-293.9 82.2-35.5 44-56.1 96.8-59.9 153.2-3.7 54.6 10.8 110.6 39.6 157 27.9 44.9 69.6 81.8 118.2 102.9 52.7 22.9 110.5 28.5 166.7 16.1 51.9-11.5 100.3-40.3 136.1-79.5 38-41.6 60.6-93.2 68-148.8 1.5-10.5 2.1-21.1 2.1-31.7z m-135.2-174c-0.5-0.4-0.4-0.3 0 0zM535.8 789.2c0.1 0.5 0.1 0.4 0 0z m83.8 142.2c0.8 0.6 0.6 0.4 0 0zM966 776.7c-0.2 3.1-0.6 6.3-0.9 9.4 0 0.2-0.1 0.5-0.1 0.7-0.3 1.7-0.5 3.4-0.8 5.1-2.1 12.7-5.3 25.1-9.4 37.3-1.5 4.3-3.1 8.6-4.8 12.8-2.6 5.9-5.4 11.7-8.4 17.4-5.8 11-12.6 21.5-20.1 31.5-2.7 3.5-5.6 6.8-8.5 10.1-4.3 4.8-8.8 9.5-13.4 14-4.3 4.1-8.8 8.1-13.3 11.9-0.8 0.6-3.3 2.6-4.6 3.7-2.3 1.7-4.6 3.4-7 5.1-10.2 7.1-21.1 13.4-32.3 18.9-2.7 1.3-5.4 2.6-8.2 3.8-1.3 0.5-2.6 1.1-4 1.6-6.1 2.4-12.4 4.5-18.7 6.4-5.9 1.7-11.9 3.2-17.9 4.5-3 0.6-6.1 1.2-9.1 1.7-1.5 0.3-3.1 0.5-4.6 0.7-0.3 0-0.6 0.1-0.9 0.1h-0.3c-13.1 1.6-26.4 2-39.6 1.4-5.7-0.2-11.4-0.8-17-1.4-1.8-0.3-5.1-0.7-6.1-0.9-3.6-0.6-7.1-1.3-10.6-2.1-12.4-2.7-24.6-6.5-36.5-11.1-0.7-0.3-1.4-0.6-2-0.8-0.7-0.3-1.4-0.6-1.8-0.8-2.8-1.2-5.5-2.5-8.2-3.8-5.8-2.9-11.5-6-17.1-9.3-5.1-3.1-10.1-6.3-15-9.8-2.2-1.5-4.4-3.1-6.5-4.8-0.2-0.1-0.4-0.3-0.5-0.4-1.6-1.2-3.1-2.5-4.6-3.8-9.5-8-18.4-16.7-26.6-26.1-2.7-3.1-5.3-6.3-7.9-9.5-0.2-0.2-0.4-0.5-0.5-0.6-3.9-5.2-7.5-10.6-11-16.1-6.3-10.1-11.8-20.7-16.6-31.6-0.6-1.6-1.9-4.8-2.3-5.7-1.1-2.9-2.1-5.7-3-8.6-2.1-6.3-3.9-12.7-5.5-19.2-1.5-6-2.7-12.1-3.7-18.2-0.2-1.1-0.3-2.1-0.5-3.2-0.1-0.4-0.1-0.9-0.2-1.1-0.4-3.7-0.8-7.3-1-11-1-13.3-0.8-26.6 0.4-39.9 0.2-2.2 0.5-4.4 0.7-6.6 0.2-1 0.9-5.8 1.1-7.1 1.1-6.6 2.6-13.2 4.3-19.6 1.5-5.9 3.4-11.8 5.4-17.6 1.4-3.9 2.9-7.8 4.4-11.7 0.4-0.9 0.7-1.8 0.9-2.2 5.1-11.5 11.2-22.4 18-33 2.9-4.5 6.1-8.9 9.3-13.2 1.1-1.3 3.1-3.9 3.7-4.7 2.2-2.7 4.5-5.3 6.8-7.9 8.3-9.2 17.4-17.7 27.1-25.6 0.5-0.4 1-0.8 1.4-1.1 0.6-0.5 1.4-1.1 1.8-1.4 2.4-1.8 4.8-3.5 7.3-5.2 5.3-3.7 10.9-7.1 16.5-10.3 5.2-3 10.5-5.8 16-8.4l7.2-3.3c0.3-0.1 0.6-0.2 0.8-0.3 1.9-0.8 3.8-1.5 5.7-2.2 11.9-4.5 24.3-7.9 36.8-10.4 3-0.6 6.1-1.1 9.2-1.6 0.5-0.1 1.1-0.2 1.7-0.2 0.8-0.1 2-0.3 2.7-0.3 6.8-0.8 13.6-1.2 20.5-1.4 6.4-0.2 12.8-0.1 19.1 0.2 3.2 0.2 6.3 0.4 9.5 0.7 1.6 0.1 3.1 0.3 4.7 0.5 0.6 0.1 1.1 0.1 1.7 0.2 12.6 1.8 24.9 4.7 37.1 8.5 5.8 1.8 11.5 3.9 17.2 6.1 0.2 0.1 0.6 0.3 1 0.4 1 0.4 1.9 0.8 2.9 1.3 3.2 1.4 6.4 3 9.5 4.6 9.4 4.7 18.4 10.1 27 16 2.1 1.4 4.1 2.8 6.1 4.3l2.4 1.8c0.3 0.3 0.7 0.5 0.9 0.7 4.3 3.4 8.4 7 12.5 10.7 7.7 7 14.9 14.6 21.7 22.6 1.6 1.9 3.1 3.7 4.6 5.6 0.9 1.2 1.7 2.3 2.6 3.5 3.2 4.4 6.3 9 9.2 13.7 5.6 8.9 10.6 18.2 15 27.8 0.3 0.7 1.1 2.6 1.7 4 0.9 2.3 1.9 4.6 2.7 7 2 5.3 3.7 10.6 5.3 16 3.1 10.4 5.3 21 7 31.7 0.1 0.9 0.2 1.9 0.3 2.8 0.4 3.1 0.6 6.3 0.9 9.4 0.4 5.8 0.6 11.7 0.6 17.6-0.6 6.5-0.8 12.9-1.3 19.3zM705.1 358.2c0-13.4-11.2-24.5-24.5-24.5H290.1c-13.4 0-24.5 11.2-24.5 24.5s11.2 24.5 24.5 24.5h390.5c13.3 0.1 24.5-11.1 24.5-24.5zM292 645.8c-13.4 0-24.5 11.2-24.5 24.5s11.2 24.5 24.5 24.5h124.7c13.4 0 24.5-11.2 24.5-24.5s-11.2-24.5-24.5-24.5H292zM538.3 514.6c0-13.4-11.2-24.5-24.5-24.5H290.1c-13.4 0-24.5 11.2-24.5 24.5 0 13.4 11.2 24.5 24.5 24.5h223.6c13.4 0 24.6-11.2 24.6-24.5z" fill="#bfbfbf" p-id="24378"></path><path d="M865 800.6l-107.9-44.2V644c0-13.4-11.2-24.5-24.5-24.5S708 630.6 708 644v128.8c0 11.9 7.7 19.5 18 23.7L851.9 848c12.4 5.1 27-5.4 30.2-17.1 3.9-14.1-4.8-25.2-17.1-30.3z" fill="#bfbfbf" p-id="24379"></path></svg>