<?xml version="1.0" standalone="no"?><!DOCTYPE svg PUBLIC "-//W3C//DTD SVG 1.1//EN" "http://www.w3.org/Graphics/SVG/1.1/DTD/svg11.dtd"><svg t="1547713692924" class="icon" style="" viewBox="0 0 1024 1024" version="1.1" xmlns="http://www.w3.org/2000/svg" p-id="26847" xmlns:xlink="http://www.w3.org/1999/xlink" width="16" height="16"><defs><style type="text/css"></style></defs><path d="M237.351268 249.826905 237.351268 249.826905c-13.990642 5.087878-27.974122 12.717649-38.148855 25.436322-11.440563 13.983479-19.070334 34.326806-19.070334 62.300928 3.814886 34.332946 19.070334 55.948243 45.772486 76.29157l0 29.246091c0 1.27197-104.264669 33.062-141.136437 143.680377 116.979248 0 233.961566 0 350.939791 0C403.918911 477.434763 299.658336 444.373787 299.658336 443.101817l0-29.246091c25.424042-20.343327 41.957601-41.958624 44.502563-76.29157 1.270946-27.974122-6.359848-48.317449-17.805528-62.300928C304.740074 249.826905 269.140275 239.657288 237.351268 249.826905z" p-id="26848" fill="#bfbfbf"></path><path d="M939.229826 579.713194 518.35729 579.713194c-11.234879 0-20.348444-9.110495-20.348444-20.349467 0-11.234879 9.112542-20.34742 20.348444-20.34742l420.872536 0c11.235902 0 20.35049 9.110495 20.35049 20.34742C959.580317 570.601676 950.466752 579.713194 939.229826 579.713194z" p-id="26849" fill="#bfbfbf"></path><path d="M939.229826 778.069845 84.768127 778.069845c-11.236925 0-20.348444-9.111518-20.348444-20.349467 0-11.235902 9.111518-20.348444 20.348444-20.348444l854.461699 0c11.235902 0 20.348444 9.110495 20.348444 20.348444C959.580317 768.957303 950.466752 778.069845 939.229826 778.069845z" p-id="26850" fill="#bfbfbf"></path><path d="M939.229826 380.084575 518.35729 380.084575c-11.234879 0-20.348444-9.111518-20.348444-20.348444s9.112542-20.348444 20.348444-20.348444l420.872536 0c11.235902 0 20.35049 9.110495 20.35049 20.348444C959.580317 370.973056 950.466752 380.084575 939.229826 380.084575z" p-id="26851" fill="#bfbfbf"></path></svg>