<?xml version="1.0" standalone="no"?><!DOCTYPE svg PUBLIC "-//W3C//DTD SVG 1.1//EN" "http://www.w3.org/Graphics/SVG/1.1/DTD/svg11.dtd"><svg t="1547715641617" class="icon" style="" viewBox="0 0 1024 1024" version="1.1" xmlns="http://www.w3.org/2000/svg" p-id="35471" xmlns:xlink="http://www.w3.org/1999/xlink" width="16" height="16"><defs><style type="text/css"></style></defs><path d="M272.7 318h439v56.5h-439zM739.3 586.8c-15.7 0-28.3 12.6-28.3 28.3v118.7c0 8 3.3 16 9.8 21.7l74.1 63.5c11.9 10.2 29.7 8.7 39.8-3 10.2-11.9 8.7-29.7-3-39.8l-64.3-55v-106c0.2-15.7-12.5-28.4-28.1-28.4z" fill="#bfbfbf" p-id="35472"></path><path d="M965.6 516.6c-15.7 0-28.3 12.6-28.3 28.3v25.6c-45.9-52-113-85-187.8-85-136.2-0.2-248.4 110.4-250.5 246.6-1.9 140 110.8 254.1 250.4 254.1 118.3 0 217.3-82 243.7-192.1 4.6-19.2-9.8-37.4-29.4-37.4-14 0-26.1 9.6-29.4 23.3-19.8 83.4-94.9 145.6-184.5 145.8-104.5 0.2-188.9-82.8-190.1-187.3C558 632.4 643.7 546 749.5 546c67.7 0 127.4 35.7 160.9 89.1h-63.3c-15.7 0-28.3 12.6-28.3 28.3 0 15.7 12.6 28.3 28.3 28.3h118.5c15.7 0 28.3-12.6 28.3-28.3V544.8c0-15.7-12.7-28.2-28.3-28.2z" fill="#bfbfbf" p-id="35473"></path><path d="M499.9 922.4H252.7c-14.3 0-26.1-11.8-26.1-26.1V252.9c0-14.3 11.8-26.1 26.1-26.1h538.9c14.3 0 26.1 11.8 26.1 26.1v173.4c21.2 5.2 41.5 12.9 60.8 22.2V257.3c0-50.4-40.9-91.3-91.3-91.3H677.7v-36.9c0-50.4-40.9-91.3-91.3-91.3h-465c-50.4 0-91.3 40.9-91.3 91.3v682.5c0 50.4 40.9 91.3 91.3 91.3h45c5.5 45.2 44 80.4 90.6 80.4h307.8c-24.4-17.1-46.3-37.7-64.9-60.9z m-382.7-80.5c-14.3 0-26.1-11.8-26.1-26.1V124.7c0-14.3 11.8-26.1 26.1-26.1h473.7c14.3 0 26.1 11.8 26.1 26.1V166H257c-50.4 0-91.3 40.9-91.3 91.3v584.6h-48.5z" fill="#bfbfbf" p-id="35474"></path><path d="M272.7 523.9h235.5c18.9-21.7 40.9-40.7 65-56.5H272.7v56.5z" fill="#bfbfbf" p-id="35475"></path></svg>