<?xml version="1.0" standalone="no"?><!DOCTYPE svg PUBLIC "-//W3C//DTD SVG 1.1//EN" "http://www.w3.org/Graphics/SVG/1.1/DTD/svg11.dtd"><svg t="1578969591914" class="icon" viewBox="0 0 1025 1024" version="1.1" xmlns="http://www.w3.org/2000/svg" p-id="3306" width="16" height="16" xmlns:xlink="http://www.w3.org/1999/xlink"><defs><style type="text/css"></style></defs><path d="M512.55239 1023.998721A511.495963 511.495963 0 0 1 1.056427 479.681767a511.495963 511.495963 0 0 1 869.116891-332.898623A42.624664 42.624664 0 1 1 810.925035 207.736413a426.246636 426.246636 0 1 0 127.873991 309.028811 435.624062 435.624062 0 0 0-17.476112-125.316511 421.98417 421.98417 0 0 0-16.623619-46.034636 42.624664 42.624664 0 0 1 76.724395-33.673485 493.593605 493.593605 0 0 1 20.033592 55.412063 520.020896 520.020896 0 0 1 22.591071 150.038816 511.495963 511.495963 0 0 1-372.965806 488.052398A528.119582 528.119582 0 0 1 512.55239 1023.998721z" p-id="3307" fill="#bfbfbf"></path><path d="M512.55239 810.875403a298.372645 298.372645 0 1 1 298.372645-298.372645 298.372645 298.372645 0 0 1-298.372645 298.372645z m0-511.495963a213.123318 213.123318 0 1 0 213.123318 213.123318 213.123318 213.123318 0 0 0-213.123318-213.123318z" p-id="3308" fill="#bfbfbf"></path><path d="M938.799026 469.878094h-170.498654a42.624664 42.624664 0 1 1 0-85.249327h170.498654a42.624664 42.624664 0 1 1 0 85.249327z" p-id="3309" fill="#bfbfbf"></path><path d="M938.799026 640.376749h-170.498654a42.624664 42.624664 0 0 1 0-85.249327h170.498654a42.624664 42.624664 0 0 1 0 85.249327z" p-id="3310" fill="#bfbfbf"></path><path d="M256.804408 469.878094H86.305754a42.624664 42.624664 0 1 1 0-85.249327h170.498654a42.624664 42.624664 0 1 1 0 85.249327z" p-id="3311" fill="#bfbfbf"></path><path d="M256.804408 640.376749H86.305754a42.624664 42.624664 0 0 1 0-85.249327h170.498654a42.624664 42.624664 0 1 1 0 85.249327z" p-id="3312" fill="#bfbfbf"></path><path d="M427.303063 299.37944a42.624664 42.624664 0 0 1-42.624664-42.624664V86.256122a42.624664 42.624664 0 0 1 85.249327 0v170.498654a42.624664 42.624664 0 0 1-42.624663 42.624664z" p-id="3313" fill="#bfbfbf"></path><path d="M597.801717 299.37944a42.624664 42.624664 0 0 1-42.624663-42.624664V86.256122a42.624664 42.624664 0 0 1 85.249327 0v170.498654a42.624664 42.624664 0 0 1-42.624664 42.624664z" p-id="3314" fill="#bfbfbf"></path><path d="M427.303063 981.374058a42.624664 42.624664 0 0 1-42.624664-42.624664v-170.498654a42.624664 42.624664 0 0 1 85.249327 0v170.498654a42.624664 42.624664 0 0 1-42.624663 42.624664z" p-id="3315" fill="#bfbfbf"></path><path d="M597.801717 981.374058a42.624664 42.624664 0 0 1-42.624663-42.624664v-170.498654a42.624664 42.624664 0 0 1 85.249327 0v170.498654a42.624664 42.624664 0 0 1-42.624664 42.624664z" p-id="3316" fill="#bfbfbf"></path></svg>