<?xml version="1.0" standalone="no"?><!DOCTYPE svg PUBLIC "-//W3C//DTD SVG 1.1//EN" "http://www.w3.org/Graphics/SVG/1.1/DTD/svg11.dtd"><svg class="icon" width="16" height="16" viewBox="0 0 1024 1024" version="1.1" xmlns="http://www.w3.org/2000/svg"><path fill="#bfbfbf" d="M887.04 499.84h-83.2l-64-403.2A32.64 32.64 0 0 0 704 70.4L232.96 145.92a32 32 0 0 0-26.24 36.48l35.2 220.16a32 32 0 1 0 64-10.24L275.2 204.16l405.76-64 58.24 360.96H134.4a44.8 44.8 0 0 0-44.8 44.8V640a44.8 44.8 0 0 0 44.8 44.8h26.24v247.04a44.8 44.8 0 0 0 44.8 44.8h610.56a44.8 44.8 0 0 0 44.8-44.8v-247.68h26.24a44.8 44.8 0 0 0 44.8-44.8V544.64a44.8 44.8 0 0 0-44.8-44.8z m-90.24 412.16H224.64v-227.84h572.16z m71.04-291.84H153.6v-56.32h714.24z"  /><path fill="#bfbfbf" d="M364.8 794.24h291.84a32 32 0 1 0 0-64H364.8a32 32 0 1 0 0 64zM595.84 231.04L384 264.96a32 32 0 0 0 5.12 64h5.12l211.2-33.92a32 32 0 0 0-10.24-64zM512 374.4a32 32 0 0 0 5.12 64h5.12l105.6-16.64A32 32 0 0 0 652.8 384a32.64 32.64 0 0 0-36.48-26.88z"  /></svg>